<?xml version="1.0" encoding="iso-8859-1"?>
<!-- Generator: Adobe Illustrator 22.0.1, SVG Export Plug-In . SVG Version: 6.00 Build 0)  -->
<svg version="1.1" id="&#x56FE;&#x5C42;_1" xmlns="http://www.w3.org/2000/svg" xmlns:xlink="http://www.w3.org/1999/xlink" x="0px"
	 y="0px" viewBox="0 0 569.277 145.508" style="enable-background:new 0 0 569.277 145.508;" xml:space="preserve">
<g>
	<g>
		<path style="fill:#F5DD4F;" d="M109.804,9.718C99.045,3.584,86.567,0.075,73.312,0.014L73.5,20.218L109.804,9.718"/>
		<polyline style="fill:#D9174A;" points="109.56,135.728 118.857,98.986 73.498,125.243 109.56,135.728 		"/>
		<path style="fill:#F1937D;" d="M146.108,72.798c-0.087-13.246-3.592-25.637-9.742-36.381l-17.423,10.058L146.108,72.798"/>
		<polyline style="fill:#B7193C;" points="73.498,125.243 118.857,98.986 73.442,72.697 73.498,125.243 		"/>
		<path style="fill:#DEE456;" d="M37.002,9.777c-11.008,6.463-20.195,15.632-26.641,26.652l17.38,10.044L37.002,9.777"/>
		<path style="fill:#48ACE2;" d="M10.349,36.407C4.2,47.151,0.706,59.54,0.619,72.788l27.133-26.315L10.349,36.407"/>
		<path style="fill:#F4ED4F;" d="M73.312,0.014C60.055,0.075,47.757,3.631,36.997,9.767L73.5,20.218L73.312,0.014"/>
		<path style="fill:#5B98D2;" d="M0.619,72.788c0.087,13.246,3.476,25.561,9.626,36.306l17.628-10.088L0.619,72.788"/>
		<path style="fill:#F7CF72;" d="M136.366,36.417c-6.445-11.021-15.554-20.234-26.562-26.699l9.139,36.757L136.366,36.417"/>
		<polyline style="fill:#F5B744;" points="109.804,9.718 73.5,20.218 118.943,46.475 109.804,9.718 		"/>
		<polyline style="fill:#EA504C;" points="146.108,72.798 118.943,46.475 118.857,98.986 146.108,72.798 		"/>
		<polyline style="fill:#E0D521;" points="37.012,9.777 27.742,46.473 73.5,20.218 37.012,9.777 		"/>
		<polyline style="fill:#158BA7;" points="0.619,72.788 27.873,99.006 27.752,46.473 0.619,72.788 		"/>
		<polyline style="fill:#C7BB19;" points="73.504,20.118 27.742,46.473 73.442,72.697 73.504,20.118 		"/>
		<polyline style="fill:#D4161F;" points="118.857,98.986 118.943,46.475 73.442,72.697 118.857,98.986 		"/>
		<polyline style="fill:#2E4EA0;" points="36.956,135.807 73.498,125.243 27.873,99.006 36.956,135.807 		"/>
		<polyline style="fill:#E39014;" points="118.943,46.475 73.5,20.218 73.442,72.697 118.943,46.475 		"/>
		<polyline style="fill:#263290;" points="27.873,99.006 73.498,125.243 73.442,72.697 27.873,99.006 		"/>
		<polyline style="fill:#0B6B95;" points="27.742,46.473 27.873,99.006 73.442,72.697 27.742,46.473 		"/>
		<path style="fill:#4270B7;" d="M10.245,109.093c6.446,11.02,15.702,20.25,26.711,26.714l-9.083-36.801L10.245,109.093"/>
		<path style="fill:#E95D7A;" d="M73.498,145.552c13.256-0.061,25.302-3.693,36.061-9.824l-36.061-10.486V145.552"/>
		<path style="fill:#EA5973;" d="M109.56,135.723c11.008-6.465,20.512-15.524,26.957-26.544l-17.66-10.193L109.56,135.723"/>
		<path style="fill:#5673B8;" d="M36.956,135.807c10.758,6.133,23.286,9.687,36.542,9.745v-20.309L36.956,135.807"/>
		<path style="fill:#ED787D;" d="M118.857,98.986l17.66,10.193c6.15-10.744,9.505-23.136,9.592-36.381L118.857,98.986"/>
		<g>
			<defs>
				<path id="SVGID_5_" d="M73.504,20.218v-0.1L73.5,20.121L73.312,0.014c13.256,0.061,25.733,3.57,36.492,9.704L73.504,20.218"/>
			</defs>
			<clipPath id="SVGID_2_">
				<use xlink:href="#SVGID_5_"  style="overflow:visible;"/>
			</clipPath>
			<g style="clip-path:url(#SVGID_2_);">
				<defs>
					<rect id="SVGID_7_" x="72.772" y="-0.565" width="37.746" height="21.169"/>
				</defs>
				<clipPath id="SVGID_4_">
					<use xlink:href="#SVGID_7_"  style="overflow:visible;"/>
				</clipPath>
				<g style="clip-path:url(#SVGID_4_);">
					
						<image style="overflow:visible;" width="66" height="37" xlink:href="E0D4F67837472372.jpg"  transform="matrix(0.5719 0 0 0.5721 72.7718 -0.5652)">
					</image>
				</g>
			</g>
		</g>
		<g>
			<defs>
				<polyline id="SVGID_9_" points="109.56,135.728 73.498,125.243 118.857,98.986 109.56,135.723 109.56,135.723 109.56,135.728 
									"/>
			</defs>
			<clipPath id="SVGID_6_">
				<use xlink:href="#SVGID_9_"  style="overflow:visible;"/>
			</clipPath>
			<g style="clip-path:url(#SVGID_6_);">
				<defs>
					<rect id="SVGID_11_" x="72.772" y="98.222" width="46.851" height="38.274"/>
				</defs>
				<clipPath id="SVGID_8_">
					<use xlink:href="#SVGID_11_"  style="overflow:visible;"/>
				</clipPath>
				<g style="clip-path:url(#SVGID_8_);">
					
						<image style="overflow:visible;" width="82" height="67" xlink:href="E0D4F67837472376.jpg"  transform="matrix(0.5714 0 0 0.5712 72.7718 98.2217)">
					</image>
				</g>
			</g>
		</g>
		<g>
			<defs>
				<path id="SVGID_13_" d="M146.108,72.798l-27.165-26.323l17.423-10.058C142.516,47.161,146.021,59.552,146.108,72.798"/>
			</defs>
			<clipPath id="SVGID_10_">
				<use xlink:href="#SVGID_13_"  style="overflow:visible;"/>
			</clipPath>
			<g style="clip-path:url(#SVGID_10_);">
				<defs>
					<rect id="SVGID_15_" x="118.454" y="35.963" width="28.01" height="37.168"/>
				</defs>
				<clipPath id="SVGID_12_">
					<use xlink:href="#SVGID_15_"  style="overflow:visible;"/>
				</clipPath>
				<g style="clip-path:url(#SVGID_12_);">
					
						<image style="overflow:visible;" width="49" height="65" xlink:href="E0D4F67837472371.jpg"  transform="matrix(0.5716 0 0 0.5718 118.4544 35.9626)">
					</image>
				</g>
			</g>
		</g>
		<g>
			<defs>
				<path id="SVGID_17_" d="M73.442,72.697L73.442,72.697 M73.498,125.243l-0.056-52.546l45.414,26.289L73.498,125.243"/>
			</defs>
			<clipPath id="SVGID_14_">
				<use xlink:href="#SVGID_17_"  style="overflow:visible;"/>
			</clipPath>
			<g style="clip-path:url(#SVGID_14_);">
				<defs>
					<rect id="SVGID_19_" x="72.772" y="71.96" width="46.851" height="53.693"/>
				</defs>
				<clipPath id="SVGID_16_">
					<use xlink:href="#SVGID_19_"  style="overflow:visible;"/>
				</clipPath>
				<g style="clip-path:url(#SVGID_16_);">
					
						<image style="overflow:visible;" width="82" height="94" xlink:href="E0D4F67837472373.jpg"  transform="matrix(0.5714 0 0 0.5712 72.7718 71.9599)">
					</image>
				</g>
			</g>
		</g>
		<g>
			<defs>
				<path id="SVGID_21_" d="M27.743,46.468L10.368,36.42c6.445-11.016,15.629-20.183,26.634-26.643L27.743,46.468"/>
			</defs>
			<clipPath id="SVGID_18_">
				<use xlink:href="#SVGID_21_"  style="overflow:visible;"/>
			</clipPath>
			<g style="clip-path:url(#SVGID_18_);">
				<defs>
					<rect id="SVGID_23_" x="9.984" y="9.119" width="27.431" height="37.747"/>
				</defs>
				<clipPath id="SVGID_20_">
					<use xlink:href="#SVGID_23_"  style="overflow:visible;"/>
				</clipPath>
				<g style="clip-path:url(#SVGID_20_);">
					
						<image style="overflow:visible;" width="48" height="66" xlink:href="E0D4F67837472370.jpg"  transform="matrix(0.5715 0 0 0.5719 9.9835 9.1192)">
					</image>
				</g>
			</g>
		</g>
		<g>
			<defs>
				<path id="SVGID_25_" d="M0.619,72.788C0.706,59.54,4.2,47.151,10.349,36.407l0.019,0.013l17.374,10.048l-0.001,0.005
					l0.007,0.002l-0.007-0.002v0.009L0.619,72.788"/>
			</defs>
			<clipPath id="SVGID_22_">
				<use xlink:href="#SVGID_25_"  style="overflow:visible;"/>
			</clipPath>
			<g style="clip-path:url(#SVGID_22_);">
				<defs>
					<rect id="SVGID_27_" x="0.247" y="35.963" width="28.062" height="37.168"/>
				</defs>
				<clipPath id="SVGID_24_">
					<use xlink:href="#SVGID_27_"  style="overflow:visible;"/>
				</clipPath>
				<g style="clip-path:url(#SVGID_24_);">
					
						<image style="overflow:visible;" width="49" height="65" xlink:href="E0D4F6783747237E.jpg"  transform="matrix(0.5727 0 0 0.5718 0.2474 35.9626)">
					</image>
				</g>
			</g>
		</g>
		<g>
			<defs>
				<path id="SVGID_29_" d="M73.385,20.186L36.997,9.767c10.76-6.135,23.058-9.691,36.315-9.753L73.5,20.121L73.385,20.186"/>
			</defs>
			<clipPath id="SVGID_26_">
				<use xlink:href="#SVGID_29_"  style="overflow:visible;"/>
			</clipPath>
			<g style="clip-path:url(#SVGID_26_);">
				<defs>
					<rect id="SVGID_31_" x="36.246" y="-0.565" width="37.747" height="21.169"/>
				</defs>
				<clipPath id="SVGID_28_">
					<use xlink:href="#SVGID_31_"  style="overflow:visible;"/>
				</clipPath>
				<g style="clip-path:url(#SVGID_28_);">
					
						<image style="overflow:visible;" width="66" height="37" xlink:href="E0D4F67837472375.jpg"  transform="matrix(0.5719 0 0 0.5721 36.2457 -0.5652)">
					</image>
				</g>
			</g>
		</g>
		<g>
			<defs>
				<path id="SVGID_33_" d="M10.245,109.093c-6.15-10.744-9.54-23.059-9.626-36.306l27.254,26.218L10.245,109.093"/>
			</defs>
			<clipPath id="SVGID_30_">
				<use xlink:href="#SVGID_33_"  style="overflow:visible;"/>
			</clipPath>
			<g style="clip-path:url(#SVGID_30_);">
				<defs>
					<rect id="SVGID_35_" x="0.247" y="71.96" width="28.062" height="37.746"/>
				</defs>
				<clipPath id="SVGID_32_">
					<use xlink:href="#SVGID_35_"  style="overflow:visible;"/>
				</clipPath>
				<g style="clip-path:url(#SVGID_32_);">
					
						<image style="overflow:visible;" width="49" height="66" xlink:href="E0D4F67837472377.jpg"  transform="matrix(0.5727 0 0 0.5719 0.2474 71.9599)">
					</image>
				</g>
			</g>
		</g>
		<g>
			<defs>
				<path id="SVGID_37_" d="M118.943,46.475l-9.139-36.757c11.008,6.465,20.117,15.678,26.562,26.699L118.943,46.475"/>
			</defs>
			<clipPath id="SVGID_34_">
				<use xlink:href="#SVGID_37_"  style="overflow:visible;"/>
			</clipPath>
			<g style="clip-path:url(#SVGID_34_);">
				<defs>
					<rect id="SVGID_39_" x="109.297" y="9.119" width="27.484" height="37.747"/>
				</defs>
				<clipPath id="SVGID_36_">
					<use xlink:href="#SVGID_39_"  style="overflow:visible;"/>
				</clipPath>
				<g style="clip-path:url(#SVGID_36_);">
					
						<image style="overflow:visible;" width="48" height="66" xlink:href="E0D4F67837472374.jpg"  transform="matrix(0.5726 0 0 0.5719 109.297 9.1192)">
					</image>
				</g>
			</g>
		</g>
		<g>
			<defs>
				<polyline id="SVGID_41_" points="118.943,46.475 73.504,20.221 73.504,20.218 109.804,9.718 118.943,46.475 				"/>
			</defs>
			<clipPath id="SVGID_38_">
				<use xlink:href="#SVGID_41_"  style="overflow:visible;"/>
			</clipPath>
			<g style="clip-path:url(#SVGID_38_);">
				<defs>
					<rect id="SVGID_43_" x="72.772" y="9.119" width="46.851" height="37.747"/>
				</defs>
				<clipPath id="SVGID_40_">
					<use xlink:href="#SVGID_43_"  style="overflow:visible;"/>
				</clipPath>
				<g style="clip-path:url(#SVGID_40_);">
					
						<image style="overflow:visible;" width="82" height="66" xlink:href="7EC79F5FFD481FC5.jpg"  transform="matrix(0.5714 0 0 0.5719 72.7718 9.1192)">
					</image>
				</g>
			</g>
		</g>
		<g>
			<defs>
				<polyline id="SVGID_45_" points="118.857,98.986 118.943,46.475 146.108,72.798 118.857,98.986 				"/>
			</defs>
			<clipPath id="SVGID_42_">
				<use xlink:href="#SVGID_45_"  style="overflow:visible;"/>
			</clipPath>
			<g style="clip-path:url(#SVGID_42_);">
				<defs>
					<rect id="SVGID_47_" x="118.454" y="45.698" width="28.01" height="53.693"/>
				</defs>
				<clipPath id="SVGID_44_">
					<use xlink:href="#SVGID_47_"  style="overflow:visible;"/>
				</clipPath>
				<g style="clip-path:url(#SVGID_44_);">
					
						<image style="overflow:visible;" width="49" height="94" xlink:href="7EC79F5FFD481FDB.jpg"  transform="matrix(0.5716 0 0 0.5712 118.4544 45.6982)">
					</image>
				</g>
			</g>
		</g>
		<g>
			<defs>
				<polyline id="SVGID_49_" points="27.742,46.473 27.743,46.468 37.012,9.777 73.385,20.186 27.742,46.473 				"/>
			</defs>
			<clipPath id="SVGID_46_">
				<use xlink:href="#SVGID_49_"  style="overflow:visible;"/>
			</clipPath>
			<g style="clip-path:url(#SVGID_46_);">
				<defs>
					<rect id="SVGID_51_" x="27.088" y="9.119" width="46.904" height="37.747"/>
				</defs>
				<clipPath id="SVGID_48_">
					<use xlink:href="#SVGID_51_"  style="overflow:visible;"/>
				</clipPath>
				<g style="clip-path:url(#SVGID_48_);">
					
						<image style="overflow:visible;" width="82" height="66" xlink:href="7EC79F5FFD481FDD.jpg"  transform="matrix(0.572 0 0 0.5719 27.0883 9.1192)">
					</image>
				</g>
			</g>
		</g>
		<g>
			<defs>
				<polyline id="SVGID_53_" points="27.873,99.006 0.619,72.788 27.742,46.482 27.873,99.006 				"/>
			</defs>
			<clipPath id="SVGID_50_">
				<use xlink:href="#SVGID_53_"  style="overflow:visible;"/>
			</clipPath>
			<g style="clip-path:url(#SVGID_50_);">
				<defs>
					<rect id="SVGID_55_" x="0.247" y="45.698" width="28.062" height="53.693"/>
				</defs>
				<clipPath id="SVGID_52_">
					<use xlink:href="#SVGID_55_"  style="overflow:visible;"/>
				</clipPath>
				<g style="clip-path:url(#SVGID_52_);">
					
						<image style="overflow:visible;" width="49" height="94" xlink:href="7EC79F5FFD481FDF.jpg"  transform="matrix(0.5727 0 0 0.5712 0.2474 45.6982)">
					</image>
				</g>
			</g>
		</g>
		<g>
			<defs>
				<polyline id="SVGID_57_" points="73.442,72.697 27.752,46.477 27.749,46.475 27.742,46.473 73.385,20.186 73.5,20.121 
					73.504,20.118 73.504,20.221 73.5,20.218 73.442,72.697 				"/>
			</defs>
			<clipPath id="SVGID_54_">
				<use xlink:href="#SVGID_57_"  style="overflow:visible;"/>
			</clipPath>
			<g style="clip-path:url(#SVGID_54_);">
				<defs>
					<rect id="SVGID_59_" x="27.088" y="19.436" width="46.904" height="53.694"/>
				</defs>
				<clipPath id="SVGID_56_">
					<use xlink:href="#SVGID_59_"  style="overflow:visible;"/>
				</clipPath>
				<g style="clip-path:url(#SVGID_56_);">
					
						<image style="overflow:visible;" width="82" height="94" xlink:href="7EC79F5FFD481FDC.jpg"  transform="matrix(0.572 0 0 0.5712 27.0883 19.4365)">
					</image>
				</g>
			</g>
		</g>
		<g>
			<defs>
				<path id="SVGID_61_" d="M118.943,46.475L118.943,46.475 M118.857,98.986L118.857,98.986L73.442,72.697l45.5-26.222
					L118.857,98.986"/>
			</defs>
			<clipPath id="SVGID_58_">
				<use xlink:href="#SVGID_61_"  style="overflow:visible;"/>
			</clipPath>
			<g style="clip-path:url(#SVGID_58_);">
				<defs>
					<rect id="SVGID_63_" x="72.772" y="45.698" width="46.851" height="53.693"/>
				</defs>
				<clipPath id="SVGID_60_">
					<use xlink:href="#SVGID_63_"  style="overflow:visible;"/>
				</clipPath>
				<g style="clip-path:url(#SVGID_60_);">
					
						<image style="overflow:visible;" width="82" height="94" xlink:href="7EC79F5FFD481FC4.jpg"  transform="matrix(0.5714 0 0 0.5712 72.7718 45.6982)">
					</image>
				</g>
			</g>
		</g>
		<g>
			<defs>
				<polyline id="SVGID_65_" points="36.956,135.807 27.873,99.006 73.498,125.243 36.956,135.807 				"/>
			</defs>
			<clipPath id="SVGID_62_">
				<use xlink:href="#SVGID_65_"  style="overflow:visible;"/>
			</clipPath>
			<g style="clip-path:url(#SVGID_62_);">
				<defs>
					<rect id="SVGID_67_" x="27.088" y="98.222" width="46.904" height="38.274"/>
				</defs>
				<clipPath id="SVGID_64_">
					<use xlink:href="#SVGID_67_"  style="overflow:visible;"/>
				</clipPath>
				<g style="clip-path:url(#SVGID_64_);">
					
						<image style="overflow:visible;" width="82" height="67" xlink:href="7EC79F5FFD481FC7.jpg"  transform="matrix(0.572 0 0 0.5712 27.0883 98.2217)">
					</image>
				</g>
			</g>
		</g>
		<g>
			<defs>
				<polyline id="SVGID_69_" points="73.442,72.697 73.442,72.697 73.5,20.218 73.504,20.221 118.943,46.475 73.442,72.697 				"/>
			</defs>
			<clipPath id="SVGID_66_">
				<use xlink:href="#SVGID_69_"  style="overflow:visible;"/>
			</clipPath>
			<g style="clip-path:url(#SVGID_66_);">
				<defs>
					<rect id="SVGID_71_" x="72.772" y="19.436" width="46.851" height="53.694"/>
				</defs>
				<clipPath id="SVGID_68_">
					<use xlink:href="#SVGID_71_"  style="overflow:visible;"/>
				</clipPath>
				<g style="clip-path:url(#SVGID_68_);">
					
						<image style="overflow:visible;" width="82" height="94" xlink:href="7EC79F5FFD481FC2.jpg"  transform="matrix(0.5714 0 0 0.5712 72.7718 19.4365)">
					</image>
				</g>
			</g>
		</g>
		<g>
			<defs>
				<polyline id="SVGID_73_" points="73.498,125.243 73.498,125.243 27.873,99.006 73.442,72.697 73.498,125.243 				"/>
			</defs>
			<clipPath id="SVGID_70_">
				<use xlink:href="#SVGID_73_"  style="overflow:visible;"/>
			</clipPath>
			<g style="clip-path:url(#SVGID_70_);">
				<defs>
					<rect id="SVGID_75_" x="27.088" y="71.96" width="46.904" height="53.693"/>
				</defs>
				<clipPath id="SVGID_72_">
					<use xlink:href="#SVGID_75_"  style="overflow:visible;"/>
				</clipPath>
				<g style="clip-path:url(#SVGID_72_);">
					
						<image style="overflow:visible;" width="82" height="94" xlink:href="7EC79F5FFD481FC3.jpg"  transform="matrix(0.572 0 0 0.5712 27.0883 71.9599)">
					</image>
				</g>
			</g>
		</g>
		<g>
			<defs>
				<polyline id="SVGID_77_" points="27.873,99.006 27.873,99.006 27.742,46.482 27.742,46.473 27.749,46.475 27.752,46.477 
					73.442,72.697 27.873,99.006 				"/>
			</defs>
			<clipPath id="SVGID_74_">
				<use xlink:href="#SVGID_77_"  style="overflow:visible;"/>
			</clipPath>
			<g style="clip-path:url(#SVGID_74_);">
				<defs>
					<rect id="SVGID_79_" x="27.088" y="45.698" width="46.904" height="53.693"/>
				</defs>
				<clipPath id="SVGID_76_">
					<use xlink:href="#SVGID_79_"  style="overflow:visible;"/>
				</clipPath>
				<g style="clip-path:url(#SVGID_76_);">
					
						<image style="overflow:visible;" width="82" height="94" xlink:href="7EC79F5FFD481FCB.jpg"  transform="matrix(0.572 0 0 0.5712 27.0883 45.6982)">
					</image>
				</g>
			</g>
		</g>
		<g>
			<defs>
				<path id="SVGID_81_" d="M36.956,135.807c-11.009-6.463-20.265-15.693-26.711-26.714l17.628-10.088L36.956,135.807"/>
			</defs>
			<clipPath id="SVGID_78_">
				<use xlink:href="#SVGID_81_"  style="overflow:visible;"/>
			</clipPath>
			<g style="clip-path:url(#SVGID_78_);">
				<defs>
					<rect id="SVGID_83_" x="9.405" y="98.222" width="28.01" height="38.274"/>
				</defs>
				<clipPath id="SVGID_80_">
					<use xlink:href="#SVGID_83_"  style="overflow:visible;"/>
				</clipPath>
				<g style="clip-path:url(#SVGID_80_);">
					
						<image style="overflow:visible;" width="49" height="67" xlink:href="7EC79F5FFD481FE0.jpg"  transform="matrix(0.5716 0 0 0.5712 9.4048 98.2217)">
					</image>
				</g>
			</g>
		</g>
		<g>
			<defs>
				<path id="SVGID_85_" d="M73.498,145.552v-20.309l36.061,10.486C98.8,141.859,86.754,145.491,73.498,145.552"/>
			</defs>
			<clipPath id="SVGID_82_">
				<use xlink:href="#SVGID_85_"  style="overflow:visible;"/>
			</clipPath>
			<g style="clip-path:url(#SVGID_82_);">
				<defs>
					<rect id="SVGID_87_" x="72.772" y="124.486" width="37.167" height="21.748"/>
				</defs>
				<clipPath id="SVGID_84_">
					<use xlink:href="#SVGID_87_"  style="overflow:visible;"/>
				</clipPath>
				<g style="clip-path:url(#SVGID_84_);">
					
						<image style="overflow:visible;" width="65" height="38" xlink:href="7EC79F5FFD481FE3.jpg"  transform="matrix(0.5718 0 0 0.5723 72.7718 124.4861)">
					</image>
				</g>
			</g>
		</g>
		<g>
			<defs>
				<path id="SVGID_89_" d="M109.56,135.723l9.297-36.737l17.66,10.193C130.071,120.199,120.568,129.258,109.56,135.723
					L109.56,135.723"/>
			</defs>
			<clipPath id="SVGID_86_">
				<use xlink:href="#SVGID_89_"  style="overflow:visible;"/>
			</clipPath>
			<g style="clip-path:url(#SVGID_86_);">
				<defs>
					<rect id="SVGID_91_" x="108.718" y="98.222" width="28.641" height="38.274"/>
				</defs>
				<clipPath id="SVGID_88_">
					<use xlink:href="#SVGID_91_"  style="overflow:visible;"/>
				</clipPath>
				<g style="clip-path:url(#SVGID_88_);">
					
						<image style="overflow:visible;" width="50" height="67" xlink:href="7EC79F5FFD481FE1.jpg"  transform="matrix(0.5728 0 0 0.5712 108.7183 98.2217)">
					</image>
				</g>
			</g>
		</g>
		<g>
			<defs>
				<path id="SVGID_93_" d="M73.498,145.552c-13.256-0.058-25.784-3.612-36.542-9.745l36.542-10.564V145.552"/>
			</defs>
			<clipPath id="SVGID_90_">
				<use xlink:href="#SVGID_93_"  style="overflow:visible;"/>
			</clipPath>
			<g style="clip-path:url(#SVGID_90_);">
				<defs>
					<rect id="SVGID_95_" x="36.246" y="124.486" width="37.747" height="21.748"/>
				</defs>
				<clipPath id="SVGID_92_">
					<use xlink:href="#SVGID_95_"  style="overflow:visible;"/>
				</clipPath>
				<g style="clip-path:url(#SVGID_92_);">
					
						<image style="overflow:visible;" width="66" height="38" xlink:href="7EC79F5FFD481FEF.jpg"  transform="matrix(0.5719 0 0 0.5723 36.2457 124.4861)">
					</image>
				</g>
			</g>
		</g>
		<g>
			<defs>
				<path id="SVGID_97_" d="M136.516,109.179L136.516,109.179l-17.66-10.193l27.251-26.188
					C146.021,86.043,142.666,98.434,136.516,109.179"/>
			</defs>
			<clipPath id="SVGID_94_">
				<use xlink:href="#SVGID_97_"  style="overflow:visible;"/>
			</clipPath>
			<g style="clip-path:url(#SVGID_94_);">
				<defs>
					<rect id="SVGID_99_" x="118.454" y="71.96" width="28.01" height="37.746"/>
				</defs>
				<clipPath id="SVGID_96_">
					<use xlink:href="#SVGID_99_"  style="overflow:visible;"/>
				</clipPath>
				<g style="clip-path:url(#SVGID_96_);">
					
						<image style="overflow:visible;" width="49" height="66" xlink:href="7EC79F5FFD481FE2.jpg"  transform="matrix(0.5716 0 0 0.5719 118.4544 71.9599)">
					</image>
				</g>
			</g>
		</g>
		<path style="fill:#FFFFFF;" d="M69.412,17.834l0.122,96.022L39.586,96.697l22.608-13.111c0,0-3.423-6.401-10.649-2.853
			L23.887,96.697l53.44,30.79V31.465l29.712,17.196L84.485,61.77c0,0,4.077,6.57,10.827,2.703l27.494-15.829L69.412,17.834"/>
	</g>
	<g>
		<g>
			<g>
				<path style="fill:#373A3D;" d="M214.645,89.078h4.124c2.096,0,3.853-1.758,3.853-3.921V41.621c0-2.163-1.758-3.92-3.853-3.92
					h-41.034c-2.163,0-3.92,3.507-3.92,5.67v52.121h-4.597V43.371c0-4.664,3.853-10.267,8.518-10.267h41.034
					c4.732,0,8.45,3.853,8.45,8.518v43.535c0,4.664-3.718,8.518-8.45,8.518h-4.124V89.078z M217.755,49.802h-39.006v-4.665h39.006
					V49.802z M179.019,66.025c0-4.664,3.853-8.518,8.518-8.518h21.024c4.664,0,8.518,3.853,8.518,8.518v11.019
					c0,4.664-3.853,8.518-8.518,8.518h-21.024c-4.664,0-8.518-3.853-8.518-8.518V66.025z M183.616,77.044
					c0,2.231,1.758,3.921,3.921,3.921h21.024c2.163,0,3.921-1.69,3.921-3.921V66.025c0-2.231-1.758-3.921-3.921-3.921h-21.024
					c-2.163,0-3.921,1.691-3.921,3.921V77.044z"/>
				<path style="fill:#373A3D;" d="M243.709,38.647h27.243v-6.896h4.597v6.896h27.243v4.596h-42.521
					c0,3.921-0.203,7.706-0.473,11.289h30.556c4.664,0,8.518,3.786,8.518,8.45v21.835c0,4.664-3.853,8.518-8.518,8.518h-9.126V88.74
					h9.126c2.163,0,3.921-1.691,3.921-3.921V62.984c0-2.096-1.758-3.853-3.921-3.853h-31.029
					c-1.555,13.452-5.002,24.539-9.262,34.341l-4.259-1.825c5.611-12.979,9.802-28.189,9.87-48.402h-11.965V38.647z"/>
				<path style="fill:#373A3D;" d="M345.038,33.982c-0.676,1.623-1.352,3.11-2.028,4.597h35.558v4.597h-37.789
					c-1.352,2.704-2.839,5.272-4.326,7.639c0.203,0,0.406-0.068,0.676-0.068h29.069c4.664,0,8.518,3.718,8.518,8.45v25.688
					c0,4.664-3.853,8.518-8.518,8.518h-4.394v-4.597h4.394c2.163,0,3.921-1.758,3.921-3.921v-2.907h-36.91l0.067,11.695h-4.597
					l-0.068-32.313c-2.434,2.772-5.002,5.34-7.571,7.706l-3.11-3.38c6.49-5.949,12.506-13.047,17.711-22.511h-15.481v-4.597h17.847
					c0.946-2.028,1.893-4.124,2.839-6.354L345.038,33.982z M333.208,59.198v4.935h36.91v-4.935c0-2.096-1.758-3.853-3.921-3.853
					h-29.069C334.965,55.345,333.208,57.102,333.208,59.198z M333.208,77.382h36.91v-8.585h-36.91V77.382z"/>
				<path style="fill:#373A3D;" d="M393.503,53.519h59.624v4.596h-43.332l-7.166,29.069h38.736c2.163,0,3.921-1.757,3.921-3.92
					V69.879h4.597v13.385c0,4.664-3.786,8.518-8.518,8.518h-44.144l7.909-33.666h-11.627V53.519z M396.004,34.726h54.622v4.597
					h-54.622V34.726z"/>
			</g>
			<g>
				<path style="fill:#1B2D7C;" d="M190.734,108.317h-8.466v12.461h-4.452v-12.461l-8.466,0.009v-0.803l21.384,0.001V108.317z"/>
				<path style="fill:#BA2022;" d="M218.01,114.368h-14.353v6.41h-4.424v-12.356c0-0.521,0.85-0.9,1.904-0.9h17.927v0.803h-14.588
					c-0.615,0-0.82,0.21-0.82,0.505v4.734h14.353V114.368z"/>
				<path style="fill:#5B5D5F;" d="M242.708,115.918h3.779v0.789c0,2.226-3.193,4.028-7.06,4.028h-5.449
					c-3.866,0-7.03-1.802-7.03-4.028v-5.142c0-2.24,3.164-4.042,7.03-4.042h5.449c3.867,0,7.06,1.802,7.06,4.042v0.916h-3.779
					v-0.775c0-1.874-2.607-3.396-5.976-3.396h-0.176c-3.222,0-5.859,1.522-5.859,3.396v4.847c0,1.874,2.637,3.382,6.035,3.382
					c3.31-0.014,5.976-1.522,5.976-3.382V115.918z"/>
				<path style="fill:#5B5D5F;" d="M260.493,107.521v11.92c0,0.296,0.205,0.535,0.82,0.535h7.851v0.803h-11.19
					c-1.084,0-1.934-0.409-1.934-0.929v-12.328H260.493z"/>
				<path style="fill:#5B5D5F;" d="M277.047,111.579c0-2.254,3.486-4.052,7.704-4.052h6.005c4.277,0,7.763,1.797,7.763,4.052v5.129
					c0,2.254-3.486,4.052-7.763,4.052h-6.005c-4.218,0-7.704-1.797-7.704-4.052V111.579z M287.622,108.324
					c-3.544,0-6.474,1.522-6.474,3.381v4.861c0,1.873,2.93,3.396,6.474,3.396h0.322c3.545,0,6.415-1.522,6.415-3.396v-4.861
					c0-1.86-2.871-3.381-6.415-3.381H287.622z"/>
				<path style="fill:#5B5D5F;" d="M313.492,120.779c-2.9,0-5.244-1.141-5.244-2.55v-10.694h4.453v10.427
					c0,1.113,1.846,2.001,4.13,2.001h4.365c2.256,0,4.13-0.888,4.13-2.001v-10.427h4.453v10.694c0,1.409-2.373,2.55-5.273,2.55
					H313.492z"/>
				<path style="fill:#5B5D5F;" d="M351.812,107.492c4.628,0,8.378,1.832,8.378,4.086v5.129c0,2.254-3.75,4.086-8.378,4.086h-10.106
					c-1.084,0-1.963-0.423-1.963-0.959v-11.398c0-0.521,0.879-0.944,1.963-0.944H351.812z M348.737,119.962
					c3.866,0,7.001-1.522,7.001-3.396v-4.847c0-1.873-3.135-3.41-7.001-3.41h-3.398c-0.615,0-1.113,0.253-1.113,0.55v10.567
					c0,0.296,0.498,0.536,1.113,0.536H348.737z"/>
				<path style="fill:#373A3F;" d="M375.102,118.41v2.149h-4.018v-2.149H375.102z"/>
				<path style="fill:#373A3F;" d="M399.212,114.17h-9.343c-1.281,0-2.336,0.568-2.336,1.256v3.153c0,0.689,1.055,1.244,2.336,1.244
					h9.343v0.761h-11.98c-1.934,0-3.516-0.846-3.516-1.897v-3.382c0-1.038,1.582-1.896,3.516-1.896h11.98V114.17z"/>
				<path style="fill:#373A3F;" d="M420.129,113.397c2.612,0,4.772,1.015,4.772,2.259v2.73c0,1.22-2.16,2.235-4.772,2.235h-7.936
					c-2.612,0-4.722-1.015-4.722-2.235v-2.73c0-1.244,2.11-2.259,4.722-2.259H420.129z M411.213,118.144
					c0,0.99,1.683,1.763,3.717,1.763h2.486c2.035,0,3.692-0.773,3.692-1.763v-2.259c0-0.966-1.658-1.775-3.692-1.775h-2.486
					c-2.034,0-3.717,0.809-3.717,1.775V118.144z"/>
				<path style="fill:#373A3F;" d="M437.883,112.902v0.664h13.989c0.904,0,1.658,0.351,1.658,0.786v6.22h-3.793v-5.87
					c0-0.253-0.427-0.459-0.954-0.459h-3.089v6.329h-3.792v-6.329h-4.019v6.329h-3.818v-7.67H437.883z"/>
			</g>
		</g>
	</g>
</g>
</svg>
